<?xml version="1.0" encoding="utf-8" ?><svg xmlns="http://www.w3.org/2000/svg" xmlns:xlink="http://www.w3.org/1999/xlink" width="1024" height="1024" viewBox="0 0 1024 1024"><path fill="#0F4B2E" d="M512.263 286.885C514.331 287.25 529.848 301.595 532.395 303.846L567.469 334.636C585.957 350.779 607.448 368.347 625.256 384.817C625.349 380.684 625.361 376.488 625.411 372.349C623.096 372.275 620.66 372.064 618.338 371.905C618.004 367.505 618.032 364.694 618.294 360.323C630.418 359.143 644.725 360.626 657.042 360.059C662.712 359.798 670.13 359.972 675.812 360.379C676.105 363.927 675.945 368.317 675.907 371.947L668.705 372.174L668.82 421.768L674.419 427.01C670.521 429.178 667.504 430.734 663.449 432.581C646.921 419.382 629.735 403.834 613.531 389.961C579.599 360.992 545.952 331.689 512.597 302.057L369.864 427.451C352.984 442.275 334.15 457.753 317.812 472.91C324.496 472.997 331.18 472.973 337.863 472.837C378.224 436.777 418.932 401.108 459.982 365.834C476.76 351.338 495.591 334.172 512.586 320.47C518.361 324.64 526.981 332.571 532.786 337.576L569.603 369.285L622.088 414.251C631.04 421.945 641.083 430.221 649.659 438.237C646.271 439.748 641.164 441.366 637.555 442.627C626.215 433.72 614.039 422.822 602.948 413.384L512.576 335.786C507.464 340.581 501.993 345.218 496.733 349.862C450.008 391.121 401.647 430.993 355.559 472.943C365.168 472.373 379.764 472.808 389.73 472.78L462.241 472.732L536.319 473.012C527.051 476.726 515.624 482.282 506.126 484.532C504.561 484.902 497.487 484.664 495.428 484.606L495.26 491.463L485.914 497.28L486.222 484.707C476.128 484.372 464.511 484.571 454.305 484.535C449.027 500.476 444.216 517.478 439.405 533.603L445.406 533.917C442.512 538.017 440.367 541.251 437.766 545.543L188.909 545.528C190.057 548.523 191.229 551.509 192.424 554.486L432.405 554.433L427.21 566.099C414.916 566.399 401.395 566.071 388.965 566.061L311.545 566.068C311.636 573.385 311.667 580.702 311.638 588.018L300.489 587.977L300.661 696.098L310.477 696.247L310.542 734.842C344.748 735.52 380.513 734.882 414.93 734.968L409.33 752.431L252.54 752.428L252.523 696.118L263.387 695.921L263.396 588.02L251.027 587.98L250.918 566.124L183.601 565.929C180.567 558.56 175.984 545.365 173.889 537.858C181.86 532.856 199.251 524.855 208.135 520.418L268.001 490.157C275.922 486.157 289.043 480.16 296.104 475.667C299.473 473.523 311.286 462.658 315.034 459.363L348.185 430.487L465.6 327.673C480.131 315.056 497.435 298.463 512.263 286.885Z"/><path fill="#FDFCFC" d="M413.661 484.567C424.039 484.524 434.418 484.58 444.796 484.734L429.462 533.595L422.125 533.601L389.404 533.548L413.661 484.567Z"/><path fill="#FDFCFC" d="M373.87 484.615C383.741 484.533 393.612 484.603 403.48 484.823C401.832 488.998 398.134 495.516 396.068 499.715C390.542 510.944 384.386 522.124 379.187 533.511L370.625 533.617C360.557 533.713 350.489 533.748 340.42 533.719C343.805 527.884 349.901 519.516 353.935 513.705C360.632 504.044 367.277 494.347 373.87 484.615Z"/><path fill="#FDFCFC" d="M334.831 484.591L362.873 484.711C351.987 501.214 340.135 517.104 329.357 533.571C325.441 533.662 321.423 533.652 317.496 533.69C308.104 533.708 298.712 533.671 289.321 533.579C304.071 517.197 319.834 500.932 334.831 484.591Z"/><path fill="#FDFCFC" d="M275.41 587.994L288.406 588.038C289.084 623.364 288.525 660.591 288.508 696.031L275.384 696.07C274.911 660.493 275.377 623.66 275.41 587.994Z"/><path fill="#FDFCFC" d="M302.085 485.035C308.697 484.73 315.51 484.871 322.142 484.908C317.154 490.971 310.022 498.245 304.564 504.076C295.3 513.888 286.131 523.789 277.058 533.777C272.976 533.642 268.202 533.778 264.065 533.792L243.347 533.835C256.67 521.459 271.53 509.992 285.409 498.185C290.541 493.82 296.496 488.699 302.085 485.035Z"/><path fill="#FDFCFC" d="M264.61 708.146C275.88 708.038 287.152 708.06 298.422 708.211L298.469 734.441L264.637 734.44L264.61 708.146Z"/><path fill="#FDFCFC" d="M636.434 372.071L657.906 372.112L657.565 411.605C656.269 411.705 638.734 396.225 636.385 394.209C636.123 387.158 636.359 379.198 636.434 372.071Z"/><path fill="#FDFCFC" d="M265.657 566.253C276.974 566.145 288.293 566.194 299.609 566.4C299.607 569.038 300.348 573.937 298.936 575.88L297.125 576.098C285.739 576.198 274.353 576.189 262.967 576.071C263.003 572.894 261.967 568.684 263.77 566.42L265.657 566.253Z"/><path fill="#FDFCFC" d="M258.144 508.474L258.648 508.872C249.893 516.406 238.46 526.622 229.471 533.554C222.95 533.743 216.426 533.842 209.901 533.853C209.43 533.833 209.732 533.878 209.041 533.546C211.427 531.882 221.832 526.84 224.968 525.248L258.144 508.474Z"/><path fill="#0F4B2E" d="M728.72 367.343C732.066 371.562 737.361 386.019 739.453 391.281C765.714 457.331 783.552 553.006 718.007 602.857C696.004 619.592 670.383 627.326 643.92 634.082C630.797 637.537 618.064 640.941 605.99 647.401C592.425 654.659 584.904 666.133 575.433 677.618C555.539 701.742 528.35 711.263 497.549 707.333C486.425 705.815 475.607 702.564 465.489 697.698C469.07 690.065 472.772 683.386 477.049 676.134C506.503 684.953 531.239 685.918 561.383 680.771L559.473 679.806C529.09 683.989 507.491 680.645 478.233 674.149C485.364 659.696 497.646 641.319 508.495 629.475C515.558 631.439 523.99 633.054 531.193 634.3C551.312 637.819 571.718 639.429 592.14 639.109C594.153 639.096 600.721 639.252 602.108 638.273C571.256 636.367 540.62 635.175 510.392 627.032L509.82 625.361C500.464 635.628 489.701 651.334 482.225 663.079C456.758 703.09 442.443 747.969 435.813 794.867C426.995 794.974 418.176 794.964 409.358 794.838C413.919 772.881 420.286 751.338 428.393 730.429C471.319 621.882 545.611 573.324 648.941 528.498C652.281 531.072 658.397 533.854 662.282 535.42C686.122 545.027 719.41 554.599 744.043 544.383C714.422 551.083 677.878 542.003 651.669 527.467C656.455 524.449 662.421 521.439 667.432 518.451C673.239 514.989 678.331 511.389 683.968 507.817C698.591 518.967 739.729 528.34 755.252 514.137C734.342 525.677 705.284 516.535 685.439 506.583C693.718 500.495 699.65 494.748 706.664 487.42C720.201 494.559 744.144 498.006 754.355 483.66C739.513 496.267 724.034 491.315 707.02 486.952C717.242 473.942 721.794 468.297 729.106 452.954L729.844 451.162C739.585 417.689 736.23 399.984 728.72 367.343Z"/><path fill="#FDFCFC" d="M533.28 600.236L533.083 601.915C524.615 609.36 517.886 618.792 510.392 627.032L509.82 625.361C516.927 616.552 525.141 608.081 533.28 600.236Z"/><path fill="#9EBAAF" d="M729.844 451.162C734.753 450.19 737.464 449.765 741.775 446.849C743.08 445.967 748.36 439.963 748.189 439.976C745.628 449.171 736.516 450.515 729.106 452.954L729.844 451.162Z"/><path fill="#2D693D" d="M533.28 600.236C537.288 596.109 540.546 593.959 544.771 590.424C543.545 592.001 534.922 600.534 533.083 601.915L533.28 600.236Z"/><path fill="#CFDDD5" d="M559.473 679.806C562.766 679.337 567.528 678.52 570.712 678.468C567.686 679.335 564.489 680.376 561.383 680.771L559.473 679.806Z"/><path fill="#FDFCFC" d="M680.993 616.025C639.132 615.839 602.172 605.653 562.732 592.575C556.916 590.647 554.411 590.932 549.033 587.209L549.704 586.467L549.223 587.358L549.824 586.498C558.851 589.55 568 591.693 577.199 594.365C607.427 603.146 649.877 615.616 681.399 614.987L680.993 616.025Z"/><path fill="#FDFCFC" d="M593.07 556.652C604.964 555.838 656.459 571.428 671.125 573.921C681.162 575.627 690.843 578.548 702.571 578.676C704.293 578.695 720.535 579.07 720.829 579.127C715.943 580.7 705.809 580.361 700.493 580.154C692.408 579.845 684.358 578.936 676.407 577.437C656.814 573.869 637.424 568.681 618.198 563.53C614.043 562.417 595.228 558.981 593.07 556.652Z"/><path fill="#CFDDD5" d="M751.431 457.424C751.341 459.244 747.905 463.309 746.552 464.395C738.159 471.135 731.697 471.41 721.867 470.811L721.854 470.308C736.03 469.321 741.481 469.04 751.431 457.424Z"/><path fill="#2D693D" d="M681.399 614.987C684.468 614.787 688.336 614.916 691.374 615.429C688.065 615.763 684.247 616.295 680.993 616.025L681.399 614.987Z"/><path fill="#0F4B2E" d="M772.987 499.129C783.812 503.665 800.756 513.106 811.885 518.354C820.151 522.253 842.604 533.02 849.429 537.507C848.051 547.17 843.964 556.901 840.425 565.996C818.773 566.423 795.706 566.045 773.947 566.048L774.039 587.71L760.978 587.873L761.172 696.193L772.034 696.269L772.05 752.13C761.659 752.941 744.61 752.393 733.762 752.391L658.699 752.314C591.198 752.28 522.393 753.133 455.004 752.318C455.868 749.106 458.614 737.36 460.289 735.344C461.577 735.278 461.906 735.296 463.141 734.981C463.699 733.073 463.551 726.99 463.77 724.486C464.302 718.393 465.639 714.575 467.683 708.838C470.264 709.759 472.948 710.499 475.582 711.271C475.864 719.192 475.954 727.118 475.852 735.043L507.441 734.967L507.48 716.103C511.093 716.169 514.997 716.052 518.634 716.013C518.872 722.335 518.907 728.664 518.739 734.988L552.144 734.949L552.059 717.75L552.086 708.017C556.102 705.629 560.141 703.28 564.201 700.968C564.768 711.381 564.451 724.368 564.415 734.975L713.991 734.842L713.868 696.364L723.959 696.031C723.542 668.448 723.886 639.963 723.852 612.308C727.507 608.913 731.699 605.468 735.514 602.206L735.635 696.252L749.033 696.137L748.907 586.744C751.087 583.601 753.4 579.644 755.443 576.347C757.361 576.4 759.692 576.272 761.645 576.22C761.692 562.494 759.915 568.18 764.973 554.495L831.993 554.397L835.195 545.602C813.029 545.165 789.979 545.784 767.562 545.512C768.555 541.732 769.364 537.518 770.183 533.667C773.632 533.612 777.183 533.656 780.641 533.655L771.308 526.147C771.759 522.796 771.941 519.852 772.152 516.483C777.591 519.583 788.412 529.215 793.703 533.586C800.226 533.993 809.31 533.748 815.995 533.761C801.577 526.499 786.844 519.464 772.662 511.806L772.987 499.129Z"/><path fill="#FDFCFC" d="M726.043 708.293C737.319 708.279 748.595 708.336 759.869 708.464L759.978 734.482L726.107 734.524C726.164 725.78 726.143 717.036 726.043 708.293Z"/><path fill="#0F4B2E" d="M438.789 687.798C416.9 648.838 421.091 598.127 442.361 559.755C473.227 504.074 528.516 485.53 586.089 469.141C582.755 474.576 572.427 485.942 567.323 493.29C548.78 521.754 543.098 538.338 542.99 572.141C531.468 580.217 520.326 588.114 509.925 597.594C508.289 599.085 506.274 600.901 504.517 602.228C505.748 562.233 509.167 538.161 531.404 503.336L530.44 503.001C507.73 534.89 500.715 565.709 501.998 604.266C496.392 610.323 490.541 615.831 484.926 621.793C480.641 626.341 476.062 632.288 472.224 637.25C471.243 626.635 470.16 615.89 470.557 605.229C471.706 574.445 482.893 537.075 499.428 511.222L498.44 510.926C480.635 537.847 469.233 574.196 468.15 606.629C467.8 617.116 469.241 629.219 470.697 639.599C463.059 649.547 456.827 659.96 449.685 669.415C434.574 629.392 442.664 578.855 462.078 541.566L461.489 540.29C459.567 543.832 457.723 547.416 455.961 551.041C437.97 588.212 434.552 633.638 448.166 672.774C445.112 677.827 441.986 682.835 438.789 687.798Z"/><path fill="#9EBAAF" d="M530.44 503.001C533.989 497.829 539.283 490.55 543.817 486.172C540.248 491.746 535.41 497.936 531.404 503.336L530.44 503.001Z"/><path fill="#9EBAAF" d="M498.44 510.926C501.245 506.53 504.07 503.042 507.57 499.178L507.689 499.507C506.138 502.313 501.552 508.654 499.428 511.222L498.44 510.926Z"/><path fill="#9EBAAF" d="M461.489 540.29C463.793 536.297 466.936 531.138 469.922 527.63C468.532 530.688 464.041 538.683 462.078 541.566L461.489 540.29Z"/><path fill="#0F4B2E" d="M337.037 587.193C362.289 586.385 388.219 587.347 413.523 587.177C415 587.167 418.41 588.03 418.158 589.998C416.99 599.113 414.757 607.317 414.025 616.622C413.181 628.216 413.776 639.87 415.796 651.318C416.492 655.102 418.764 664.098 418.881 667.23C419.286 678.004 418.991 689.427 419.058 700.255C419.082 704.196 419.302 714.452 418.435 717.785C416.876 718.877 415.273 719.122 413.397 719.123C388.625 719.144 363.816 719.229 339.048 718.961C337.592 718.946 335.953 718.759 334.871 717.793C334.197 715.452 333.876 713 333.858 710.56C333.593 673.233 334.081 635.894 333.764 598.569C333.725 593.941 332.463 589.371 337.037 587.193Z"/><path fill="#FDFCFC" d="M345.584 599.363L372.618 599.403C372.667 609.624 372.662 619.846 372.603 630.068L345.644 630.101L345.584 599.363Z"/><path fill="#FDFCFC" d="M345.57 676.461L372.773 676.534C372.554 686.538 372.675 697.208 372.635 707.257L345.733 707.293C345.745 697.015 345.691 686.738 345.57 676.461Z"/><path fill="#FDFCFC" d="M345.671 637.855L372.579 637.957L372.577 668.654L345.834 668.624C345.875 658.368 345.821 648.111 345.671 637.855Z"/><path fill="#FDFCFC" d="M380.616 637.917L407.342 637.915C407.415 648.224 407.141 658.091 407.346 668.55C398.987 668.859 389.067 668.625 380.582 668.649L380.616 637.917Z"/><path fill="#FDFCFC" d="M380.603 676.526L407.316 676.531C407.152 686.731 407.094 696.932 407.141 707.132C398.473 707.324 389.499 707.261 380.806 707.316C380.515 697.281 380.648 686.609 380.603 676.526Z"/><path fill="#FDFCFC" d="M380.6 599.404L407.154 599.283C407.087 609.516 407.082 619.749 407.138 629.981L380.629 630.08L380.6 599.404Z"/><path fill="#0F4B2E" d="M619.863 459.796C623.242 457.614 639.85 453.665 645.068 451.933C683.261 439.261 728.995 408.428 726.173 363.01L726.46 362.6C727.735 365.419 728.408 371.799 729.009 375.097C732.688 395.276 732.814 425.177 725.444 444.476C711.296 481.521 677.014 505.466 641.829 520.552C634.659 523.627 627.175 527.269 619.95 530.123C621.567 508.87 624.678 492.445 635.807 473.573L634.92 472.95C623.569 491.179 617.504 509.832 617.229 531.273C607.363 535.958 593.722 543.279 584.395 547.122C586.722 520.272 589.596 504.146 604.58 480.587L604.062 479.551C606.975 473.895 615.862 465.365 618.543 459.712L619.863 459.796Z"/><path fill="#9EBAAF" d="M618.543 459.712L619.863 459.796C616.063 465.279 608.78 475.307 604.58 480.587L604.062 479.551C606.975 473.895 615.862 465.365 618.543 459.712Z"/><path fill="#CFDDD5" d="M641.572 463.646L641.974 464.552C640.858 466.063 636.223 473.127 635.807 473.573L634.92 472.95C637.066 469.373 638.99 466.959 641.572 463.646Z"/><path fill="#2D693D" d="M641.572 463.646C642.451 462.29 642.889 461.236 644.333 460.601C644.417 462.162 643.063 463.484 641.974 464.552L641.572 463.646Z"/><path fill="#FDFCFC" d="M662.664 451.863C665.07 463.479 653.887 506.235 647.471 516.979C646.547 514.052 650.505 505.83 651.666 501.84C654.79 491.096 657.642 480.525 659.822 469.536C660.938 463.909 661.332 457.177 662.664 451.863Z"/><path fill="#FDFCFC" d="M686.645 441.364C688.716 453.298 683.251 489.476 676.544 500.066C675.693 496.326 687.653 458.416 685.64 450.508C685.439 449.718 686.353 442.597 686.645 441.364Z"/><path fill="#FDFCFC" d="M703.554 426.359L704.193 426.931C708.644 440.505 706.453 463.09 702.721 476.772L701.905 476.682C701.575 474.932 704.842 456.782 704.801 451.793C704.731 443.144 703.916 434.875 703.554 426.359Z"/><path fill="#0F4B2E" d="M512.092 371.709C519.234 371.571 526.281 373.366 532.488 376.903C541.364 382 548.068 390.913 550.708 400.782C552.511 407.52 553.812 452.413 551.283 456.854C548.359 458.075 520.088 457.672 514.75 457.679C509.641 457.704 477.657 458.466 475.058 456.734C472.857 452.245 474.478 424.848 473.96 417.475C472.201 392.406 486.951 373.573 512.092 371.709Z"/><path fill="#FDFCFC" d="M485.76 420.65C493.522 420.549 501.285 420.587 509.045 420.763L508.999 446.02L485.865 446.053C485.918 437.629 485.802 429.084 485.76 420.65Z"/><path fill="#FDFCFC" d="M517.314 420.586C524.883 420.499 532.911 420.714 540.514 420.789L540.466 445.984C532.912 446.161 524.964 446.042 517.379 446.042L517.314 420.586Z"/><path fill="#FDFCFC" d="M508.316 383.608C509.621 385.451 509.024 408.555 509.008 412.517L486.541 412.519L485.932 411.742C485.31 397.501 495.13 387.108 508.316 383.608Z"/><path fill="#FDFCFC" d="M517.061 383.293C522.189 384.614 526.937 387.117 530.924 390.602C538.037 396.931 539.936 403.445 540.429 412.504L517.157 412.474L517.061 383.293Z"/><path fill="#0F4B2E" d="M269.856 325.278C271.072 325.399 273.128 325.519 273.562 326.591C275.548 331.484 274.508 346.361 274.426 351.533C278.136 347.823 283.93 341.177 288.72 339.957C290.702 340.365 289.888 339.892 291.219 341.477C291.028 344.304 277.198 357.909 274.229 361.021C274.002 364.764 274.064 368.941 274.044 372.729C281.368 368.693 283.4 361.838 290.351 358.613C290.996 358.314 291.15 358.661 291.814 359.134C292.42 362.244 287.175 375.908 285.847 380.276C289.345 378.039 292.677 375.948 296.014 373.46C298.999 367.334 300.109 350.684 304.881 348.143C306.52 348.388 305.821 348.062 307.061 349.138C308.235 351.961 305.271 363.816 304.579 367.732C308.908 364.756 320.111 355.567 324.897 357.166C325.835 358.689 325.673 357.893 325.46 359.623C323.059 363.098 311.04 370.586 306.491 374.139C310.654 374.907 324.044 377.112 326.064 380.55C325.782 382.207 326.148 381.474 324.688 382.685C318.344 383.46 305.926 380.313 299.356 378.787C295.783 381.202 293.794 382.716 290.521 385.514C296.363 386.702 302.226 387.843 308.054 389.091C311.173 389.759 315.686 390.503 315.388 394.441C314.29 395.692 294.501 398.898 290.827 400.011C294.268 402.59 296.869 404.508 300.516 406.744L300.982 406.699L301.756 406.613C307.343 406.042 324.753 400.739 327.843 404.299L327.714 405.97C325.578 408.344 313.5 410.532 309.641 411.428C314.632 415.293 320.116 417.94 325.361 421.413C327.506 422.833 330.171 425.146 327.65 427.637C323.366 428.284 310.945 420.205 306.461 417.635C308.152 422.505 312.521 433.07 311.307 437.618C310.042 438.948 310.803 438.56 308.908 438.742C305.443 436.94 304.486 431.515 303.404 427.877C301.885 422.768 300.364 417.747 298.717 412.677C295.368 410.357 290.698 407.659 287.163 405.464C287.792 407.808 288.76 410.711 289.303 412.974C290.094 416.272 295.61 426.622 293.579 428.966C289.321 428.946 278.649 416.78 274.504 413.007C274.482 417.715 274.446 421.875 274.787 426.589C280.156 432.85 287.079 438.392 292.213 444.732C293.009 445.715 292.688 446.803 292.49 447.84C288.737 451.371 278.174 439.357 274.927 436.569C274.846 441.353 275.18 446.146 275.12 450.919C275.08 454.081 275.458 457.903 272.081 459.072C266.68 457.951 268.906 443.408 268.989 438.375L268.777 436.874C265.019 436.377 258.623 449.395 252.324 447.628C250.41 445.259 251.624 443.676 253.598 441.571C258.353 436.498 263.875 431.304 268.836 426.49C268.81 422.058 268.941 417.405 268.994 412.953C263.745 417.059 256.161 426.304 251.434 428.398C249.731 428.361 250.541 428.578 248.999 427.49C248.374 425.112 251.955 419.77 252.969 416.866C254.298 413.058 255.427 409.377 256.558 405.511C252.013 408.098 249.149 409.679 245.253 413.16C244.169 418.663 240.755 437.944 235.124 439.215C234.347 438.848 233.71 438.763 233.528 438.075C232.463 434.046 237.023 421.619 238.191 417.388C231.31 421.258 225.006 425.99 218.118 429.799C215.61 431.187 214.065 431.633 211.699 429.98C209.535 423.689 230.864 416.171 232.791 412.219C229.965 408.55 215.616 411.522 213.114 405.704C213.493 404.013 213.515 404.139 214.747 402.884C217.884 402.033 237.056 406.355 242.456 407.067C245.499 404.61 249.112 402.114 252.31 399.8C247.914 399.008 231.65 397.265 228.156 392.984C227.747 392.483 228.138 391.797 228.332 391.1C231.016 388.712 236.073 389.326 239.714 388.737C244.44 387.973 248.744 387.041 253.381 385.866C249.859 383.506 246.917 381.943 243.158 379.933C235.725 381.007 228.331 382.798 220.877 383.719C218.174 384.053 215.705 384.072 213.826 381.976C213.752 380.004 213.526 380.899 214.535 379.196C217.565 377.477 231.431 375.973 236.338 374.915C229.951 371.103 223.471 367.313 217.186 363.34C214.767 361.811 211.185 359.652 211.612 356.597C214.373 353.828 218.525 356.539 221.39 358.196C226.996 361.439 232.481 365.058 237.925 368.567C236.801 363.668 230.576 350.943 234.172 347.554C234.911 347.486 236.585 347.26 236.903 347.73C240.375 352.87 243.857 367.431 246.304 373.035L246.668 373.854C249.662 375.851 253.22 377.735 256.393 379.504C256.332 379.297 256.271 379.091 256.21 378.884C255.892 373.918 247.844 361.642 249.888 357.491L250.944 357.357C256.484 359.326 262.911 368.532 268.238 373.418C268.505 369.109 268.464 364.18 268.528 359.82C265.201 356.635 251.335 344.434 250.824 341.191C253.233 333.205 265.102 348.355 267.982 351.314C268.113 344.418 267.188 333.814 268.436 326.909C268.998 326.263 269.471 325.72 269.856 325.278Z"/><path fill="#FDFCFC" d="M283.857 388.936C288.638 389.324 297.343 391.209 301.928 392.517C298.868 393.02 295.655 393.781 292.605 394.446C289.448 395.262 287.933 395.677 284.882 396.914C281.849 395.29 280.714 394.704 277.99 392.558C279.865 391.325 281.931 390.113 283.857 388.936Z"/><path fill="#FDFCFC" d="M268.313 397.943C269.302 398.838 268.911 405.068 268.906 406.717C264.85 409.387 262.21 411.724 258.553 414.868L258.322 414.609C258.78 410.706 260.295 408.108 260.695 403.105C263.401 400.832 265.285 399.762 268.313 397.943Z"/><path fill="#FDFCFC" d="M274.255 397.781C275.78 398.549 280.359 402.047 281.945 403.213C282.768 408.078 283.833 411.528 285.227 416.229C282.254 414.362 279.674 409.968 274.506 406.773C274.469 403.808 274.344 400.754 274.255 397.781Z"/><path fill="#FDFCFC" d="M258.593 389.146C260.352 389.972 263.334 391.899 265.102 392.964C262.902 394.239 260.577 395.467 258.338 396.691C255.464 395.417 254.145 395.227 251.133 394.625C247.983 394.002 246.212 393.712 243.206 392.576C247.941 391.838 253.841 390.272 258.593 389.146Z"/><path fill="#FDFCFC" d="M283.361 371.029L283.592 371.174C283.64 372.896 281.303 380.246 280.686 383.013C278.306 384.994 276.681 385.924 274.066 387.496C273.022 385.607 273.951 381.472 274.29 379.243C277.615 376.462 280.229 374.038 283.361 371.029Z"/><path fill="#FDFCFC" d="M258.298 372.302C261.893 374.491 263.729 377.045 268.236 378.959L268.662 386.694C265.359 385.065 263.842 383.956 260.82 381.799C260.037 378.618 259.196 375.452 258.298 372.302Z"/><path fill="#0F4B2E" d="M687.967 631.048C689.094 632.731 689.19 712.41 687.936 717.907C687.743 717.997 687.553 718.094 687.357 718.177C683.208 719.947 620.765 719.699 611.935 719.042C609.593 718.868 607.347 718.499 605.139 717.676C603.34 715.719 604.049 676.212 604.057 670.25L604.04 660.867C607.875 657.772 611.415 656.019 615.792 653.84C615.932 658.769 615.861 664.053 615.881 669.014C624.772 669.043 633.663 669.011 642.554 668.916L642.582 644.801C645.083 643.905 647.77 643.045 650.3 642.19C650.717 650.599 650.5 660.483 650.516 669.001L677.016 668.908C676.89 658.931 676.993 648.663 676.988 638.665L665.56 638.356C674.253 636.155 679.705 634.314 687.967 631.048Z"/><path fill="#FDFCFC" d="M650.52 676.888C659.1 676.634 668.432 676.839 677.067 676.866C677.002 687.06 676.991 697.254 677.034 707.448C668.283 707.574 659.294 707.461 650.524 707.453L650.52 676.888Z"/><path fill="#FDFCFC" d="M615.943 676.888L642.53 676.947L642.549 707.435C633.76 707.557 624.755 707.461 615.948 707.467C616.096 697.368 615.961 687.007 615.943 676.888Z"/><path fill="#0F4B2E" d="M371.364 280.57C371.292 276.602 369.922 261.882 373.744 260.628L374.991 261.372C376.391 264.709 375.951 277.431 375.938 281.892C378.885 278.098 382.83 270.602 386.937 269.472C388.711 269.897 388.009 269.457 389.179 270.733C388.597 274.017 378.973 285.151 376.326 288.181C375.816 293.182 376.013 301.848 376.166 306.886L380.726 303.873C381.108 300.305 381.807 296.983 382.144 293.493L381.141 292.753C380.717 289.887 386.735 280.677 390.485 280.549L391.276 281.528C391.716 283.755 391.262 284.663 390.667 286.941C389.177 290.332 388.59 291.417 386.194 294.42C385.88 295.116 385.393 296.105 385.149 296.794L384.309 302.96L391.101 298.471C392.356 292.501 396.981 281.373 401.624 278.219C403.069 278.392 402.442 278.092 403.48 279.312C403.961 284.564 397.423 290.657 395.285 296.455C400.085 293.515 413.873 284.216 418.056 283.196C419.454 284.076 418.907 283.508 419.707 285.012C419.193 289.085 409.494 293.249 405.941 295.294C409.955 295.461 414.506 295.172 417.875 297.225C418.823 298.665 418.583 297.879 418.489 299.702C415.32 302.77 404.602 297.166 400.144 299.545L399.752 300.68C402.415 304.096 413.189 302.308 412.763 307.201C409.372 310.14 397.613 306.076 393.815 304.211C391.43 305.825 388.815 307.521 386.498 309.192C392.375 309.913 398.028 310.542 403.769 312.12C397.731 314.502 392.458 315.382 386.239 317.084L392.472 320.46C396.113 318.39 410.412 311.488 412.393 317.474C411.363 320.099 400.557 322.103 397.052 323.508C398.883 324.126 401.36 324.876 403.1 325.576C407.325 324.64 415.171 322.383 418.949 324.284L419.156 325.765C415.154 328.505 409.682 328.082 404.935 328.069C409.286 331.172 417.894 335.213 420.221 338.304C420.243 340.062 420.534 339.346 419.478 340.582C415.061 341.344 403.21 333.285 398.779 330.646C400.057 333.656 405.375 343.997 404.661 346.108C403.34 346.54 403.395 346.641 402.096 346.236C397.626 341.956 394.768 331.11 390.444 326.415C390.009 325.943 385.456 323.779 384.563 323.353C385.692 329.464 391.38 338.315 390.968 343.445L390.372 344.065C385.47 342.549 383.861 335.758 382.807 331.395L382.893 330.861C381.873 325.73 382.341 321.332 376.979 319.952C376.237 321.255 376.338 334.643 376.316 337.151L376.742 337.787C379.2 341.416 388.977 352.274 388.804 355.008C387.454 356.123 388.224 355.837 386.374 355.773C382.651 353.729 379.567 348.496 376.044 344.969C376.075 350.095 376.787 361.325 374.706 365.363L373.666 365.998C372.031 365.328 372.687 365.834 371.621 364.429C370.6 358.254 371.516 350.686 371.175 344.147C368.926 346.802 363.555 354.91 360.91 356.408C360.35 356.725 359.244 356.204 358.597 355.926C357.07 351.737 367.994 339.839 371.302 336.783C371.263 331.933 371.817 323.54 369.832 319.508L368.827 318.921C365.018 320.751 363.572 331.23 362.975 335.156L362.624 336.986C361.907 339.255 358.81 342.238 356.429 343.021L355.758 342.606C355.163 338.995 360.49 329.784 361.824 324.812L362.009 324.105C359.367 325.781 356.86 327.187 354.134 328.713C353.113 332.96 349.752 346.196 345.624 347.722C344.005 347.291 344.722 347.684 343.502 346.334C343.985 343.344 347.044 336.114 348.206 331.636C343.959 333.455 331.202 342.572 327.731 340.4L327.57 338.689C328.406 336.58 338.991 331.102 342.359 327.815C338.488 327.543 330.997 328.641 328.553 325.514C328.773 323.64 328.45 324.482 329.644 322.93C332.135 322.056 343.533 324.528 347.358 324.99L361.321 317.628C358.111 316.983 346.01 315.055 344.826 312.485C346.465 310.815 357.876 308.856 361.457 307.841C358.607 306.014 356.498 304.95 353.482 303.435C350.375 305.843 336.828 310.907 334.628 306.84C336.135 303.59 346.673 302.164 350.217 301.46C348.274 300.127 346.601 299.326 344.52 298.259C341.281 298.983 331.774 301.794 329.3 300.257C328.78 298.613 328.731 299.373 329.209 297.903C331.879 295.671 338.237 295.714 342.004 295.424C338.208 292.645 329.143 288.765 328.374 284.346C329.445 283.127 328.786 283.58 330.545 283.157C335.244 284.715 345.931 291.961 350.683 295.003C349.09 291.448 343.8 281.693 345.939 278.365L347.034 278.687C351.657 282.914 354.424 292.047 355.557 298.08C358.104 299.071 360.714 301.091 362.99 301.162L363.471 300.377L362.877 297.934L363.729 297.345L366.241 298.028C369.353 303.821 364.447 303.005 371.049 307.777C371.208 300.843 371.111 293.565 371.122 286.604C368.487 283.556 359.94 273.463 359.295 270.234C360.417 268.493 359.686 268.911 361.246 268.447C364.476 269.585 369.287 277.477 371.364 280.57Z"/><path fill="#E3E0E2" d="M388.986 283.933C389.601 285.426 389.575 286.091 390.667 286.941C389.177 290.332 388.59 291.417 386.194 294.42C385.88 295.116 385.393 296.105 385.149 296.794C384.762 293.118 386.562 286.746 388.986 283.933Z"/><path fill="#2D693D" d="M388.986 283.933C389.601 285.426 389.575 286.091 390.667 286.941C389.177 290.332 388.59 291.417 386.194 294.42C386.028 291.813 388.862 289.822 388.986 283.933Z"/><path fill="#FDFCFC" d="M362.556 310.384C364.547 310.402 366.827 312.148 368.834 313.284L363.913 315.599C361.441 314.515 358.94 313.836 356.358 313.052C359.121 312.196 359.983 311.753 362.556 310.384Z"/><path fill="#FDFCFC" d="M380.917 311.404C383.103 311.334 389.689 311.618 391.679 312.321L391.47 312.85L388.632 313.726L384.444 315.141C382.848 314.631 380.103 314.174 379.526 312.614L380.917 311.404Z"/><path fill="#0F4B2E" d="M587.681 468.459C594.252 467.168 611.383 461.72 618.543 459.712C615.862 465.365 606.975 473.895 604.062 479.551C590.162 500.123 580.862 523.618 581.752 548.839C569.391 555.692 557.262 562.957 545.385 570.619L545.484 569.971C546.068 565.926 546.308 561.655 546.555 557.566C547.941 534.583 555.939 512.952 568.493 493.708L567.323 493.29C572.427 485.942 582.755 474.576 586.089 469.141C586.322 468.989 587.38 468.582 587.681 468.459Z"/><path fill="#9EBAAF" d="M586.089 469.141C586.322 468.989 587.38 468.582 587.681 468.459C584.579 472.809 581.301 476.592 578.037 480.79C574.776 484.984 571.811 489.557 568.493 493.708L567.323 493.29C572.427 485.942 582.755 474.576 586.089 469.141Z"/><path fill="#2D693D" d="M357.025 282.582C358.078 280.564 357.326 281.173 358.991 280.279C362.927 281.81 366.244 291.763 367.162 295.767C365.067 292.558 363.562 289.905 361.717 286.535C363.129 291.177 364.266 293.607 366.241 298.028L363.729 297.345L362.877 297.934C360.289 294.74 355.31 287.591 356.437 283.442L357.025 282.582Z"/><path fill="#CFDDD5" d="M357.025 282.582C358.954 284.626 360.516 289.689 361.463 292.436C358.77 288.577 358.447 286.815 356.437 283.442L357.025 282.582Z"/><path fill="#0F4B2E" d="M336.006 315.23C339.431 316.145 345.659 316.575 347.872 318.553C348.156 320.199 348.262 319.4 347.314 320.99C343.378 320.728 337.847 320.982 335.122 318.47C334.764 316.739 334.915 317.241 336.006 315.23Z"/><path fill="#2D693D" d="M362.975 335.156L363.231 334.781C366.31 330.204 366.28 328.013 370.779 324.196C368.824 330.382 367.607 332.616 362.624 336.986L362.975 335.156Z"/><path fill="#2D693D" d="M382.807 331.395C382.652 333.454 383.25 333.465 382.781 335.446C381.103 333.532 379.164 331.028 378.819 328.458L379.453 327.975C381.083 328.377 381.756 329.537 382.893 330.861L382.807 331.395Z"/></svg>