<?xml version="1.0" encoding="utf-8" ?><svg xmlns="http://www.w3.org/2000/svg" xmlns:xlink="http://www.w3.org/1999/xlink" width="685" height="500" viewBox="165 255 685 500"><rect x="165" y="255" width="685" height="500" rx="60" fill="#F0EBE0"/><path fill="#124B2F" d="M512.722 286.362C515.432 288.077 522.192 294.556 525.036 297.133C531.44 302.913 537.893 308.638 544.394 314.309C571.201 337.922 598.213 361.303 625.425 384.45C625.637 380.309 625.565 376.119 625.545 371.968L618.271 371.898C618.039 368.206 618.079 363.888 618.022 360.146C637.317 360.016 656.612 360.031 675.907 360.191L675.972 371.53C673.51 371.672 671.336 371.626 668.881 371.592C668.746 388.296 669.145 405.293 668.753 421.963C679.821 432.678 693.639 443.793 705.19 454.329C712.603 461.091 725.478 472.424 733.354 478.187C737.649 481.329 754.68 489.434 759.887 492.035L798.354 511.494L831.493 527.958C836.119 530.252 845.933 534.83 849.796 537.626C847.967 545.783 844.041 558.304 840.606 566.02C819.009 566.046 796.457 566.362 774.932 566.008L774.885 587.933L760.994 587.871L761.11 695.959L772.09 696.125C771.687 714.39 771.991 733.668 771.987 752.009L549.75 752.021L252.506 752.096L252.473 695.968L263.472 695.923L263.432 587.707C259.468 587.512 255.014 587.604 251.01 587.599C251.119 580.456 250.979 573.069 250.929 565.907C228.596 565.571 206.064 566.241 183.718 565.798C180.248 556.888 176.955 547.018 173.792 537.959C179.928 533.992 197.768 525.659 204.992 522.015L268.031 490.115C276.591 485.797 291.454 479.058 298.509 473.652C304.24 469.261 313.175 460.911 318.801 455.937L349.872 428.827L464.705 328.41L495.689 301.04C499.309 297.799 509.041 288.651 512.722 286.362ZM311.744 587.967L300.436 587.977C300.287 623.214 299.772 660.967 300.518 696.071L310.547 696.125C310.612 709.065 310.406 722.043 310.532 734.964C360.527 734.466 411.031 735.173 461.089 734.98L461.072 634.126C461.069 627.381 460.503 593.8 461.876 589.041C464.509 588.289 467.241 588.038 469.968 587.93C479.258 587.563 556.804 587.46 558.902 588.43C560.096 588.982 560.963 590.422 561.196 591.673C562.589 599.147 561.383 613.95 561.353 622.027C561.306 634.609 561.112 732.906 561.565 734.1C561.685 734.419 561.999 734.624 562.217 734.885C563.105 734.925 563.987 734.983 564.875 734.97L713.995 734.989C713.997 723.621 714.477 707.054 713.734 696.104L724.004 696.08C724.031 660.519 724.589 623.359 723.892 587.88C720.416 587.842 715.852 587.658 712.459 587.811C712.443 580.636 712.363 573.366 712.425 566.2C696.84 565.647 679.448 566.008 663.655 566.001L574.717 565.991L311.676 566.021C311.832 573.335 311.855 580.652 311.744 587.967ZM355.267 473.019C376.401 472.532 398.485 472.807 419.679 472.801L513.875 472.799L615.027 472.838C632.298 472.863 654.146 473.501 671.151 472.771C632.529 438.482 593.523 404.627 554.141 371.214L525.939 347.102C523.373 344.874 514.751 336.938 512.58 335.478C476.215 368.117 439.409 400.26 402.172 431.899C387.042 445.005 369.869 459.431 355.267 473.019ZM473.273 735.049L547.125 735.038L548.891 734.892C549.957 733.156 549.394 687.706 549.385 681.928L549.384 599.866L477.794 599.737C476.187 599.76 474.429 599.528 473.219 600.4L473.193 685.758C473.171 700.218 472.434 721.548 473.273 735.049ZM317.756 472.955C324.243 472.992 332.232 473.244 338.545 472.621C368.31 444.364 403.122 415.306 434.29 388.096C452.111 372.349 470.083 356.775 488.204 341.376C491.606 338.443 509.642 321.894 512.52 321.027L514.039 321.352C548.659 352.011 584.547 381.409 619.317 411.776L669.221 454.957C674.665 459.701 683.854 468.925 688.977 472.803C695.049 472.799 701.773 472.987 707.748 472.836C695.754 461.328 682.028 449.539 669.475 438.478C645.264 417.145 620.862 396.03 596.271 375.136L529.799 317.423C524.03 312.355 518.328 306.929 512.555 301.954C487.472 324.598 462.079 346.897 436.384 368.845L369.971 427.299C359.408 436.637 348.787 445.911 338.111 455.121C331.87 460.478 323.412 467.249 317.756 472.955ZM192.465 554.384L565.131 554.38L831.591 554.177L834.386 548.276C834.839 547.567 835.151 547.037 835.672 546.374L835.368 545.675C830.12 545.214 821.706 545.509 816.244 545.542L786.036 545.636L690.805 545.779L355.37 545.79L246.616 545.768L212.534 545.892C205.872 545.926 195.356 546.082 188.926 545.575C190.122 548.505 191.302 551.441 192.465 554.384ZM439.153 533.862L472.63 533.997L481.914 534.016C482.676 519.036 484.996 499.649 486.668 484.531C475.807 484.321 464.995 484.674 454.327 484.486C448.829 499.762 444.396 518.037 439.153 533.862ZM542.792 533.991C556.158 533.889 572.52 534.468 585.459 533.876L569.732 484.668C558.944 484.56 548.156 484.523 537.368 484.557C539.2 499.779 541.906 518.923 542.792 533.991ZM491.929 533.995L530.625 533.985L532.721 533.883C533.514 532.524 528.496 490.284 528.43 484.524C517.465 484.432 506.499 484.413 495.533 484.466C494.886 498.61 493.421 512.798 492.365 526.921C492.185 529.326 491.92 531.576 491.929 533.995ZM413.443 484.529C408.767 494.421 403.98 504.26 399.084 514.044C396.211 519.738 391.45 528.396 389.035 534.029C395.327 533.307 408.846 533.881 415.75 533.872L429.558 533.887C434.173 517.692 439.972 500.745 445.071 484.563C436.858 484.278 426.364 484.008 418.105 484.244L413.443 484.529ZM595.474 533.893L635.583 533.994C627.218 517.606 618.979 501.155 610.865 484.641C600.2 484.527 589.534 484.51 578.869 484.59C584.072 501.017 590.464 517.596 595.474 533.893ZM340.183 533.908L371.625 533.941L379.033 533.909C386.548 517.608 396.552 500.408 403.603 484.725C393.642 484.599 383.68 484.556 373.718 484.594L352.005 516.478C348.436 521.694 343.363 528.625 340.183 533.908ZM276.819 533.959C286.754 523.065 296.776 512.251 306.882 501.516C310.736 497.407 319.342 488.85 322.22 484.881C316.076 484.863 308.269 484.685 302.191 485.067C296.341 488.672 286.237 497.502 280.538 502.231C267.82 512.751 255.169 523.353 242.586 534.036C249.412 533.833 255.541 533.876 262.375 534.019L276.819 533.959ZM724.033 565.976C724.061 569.205 724.009 572.854 724.163 576.042C736.556 576.003 749.691 576.15 762.023 575.773L761.972 566.058L724.033 565.976ZM760.007 708.295C748.893 707.853 737.148 708.13 725.975 708.044L726.149 734.774C736.795 734.777 749.386 735.094 759.875 734.733C760.517 728.8 760.055 714.695 760.007 708.295ZM762.041 506.885C772.004 515.35 784.839 525.381 793.922 534.075L816.254 533.994C805.792 527.508 790.473 521.243 779.352 515.239C776.698 513.806 763.949 507.381 762.041 506.885ZM264.677 707.989C264.676 716.334 264.445 726.269 264.958 734.484C275.813 734.513 288.067 734.273 298.808 734.614C298.545 725.747 298.434 716.875 298.477 708.004L264.677 707.989ZM658.002 412.583C658.098 399.026 658.112 385.469 658.043 371.912C650.77 371.924 643.367 372.011 636.106 371.939L636.029 393.385C642.517 399.826 650.928 406.463 658.002 412.583ZM702.485 485.004C716.145 501.641 730.422 517.592 744.222 534.052L781.394 533.984C767.205 523.079 753.438 510.497 739.367 499.353C733.679 494.848 727.312 489.049 721.393 484.989C715.09 484.956 708.788 484.961 702.485 485.004ZM259.393 507.579C254.231 510.189 210.814 531.75 208.775 533.709L209.14 534.015C215.585 533.989 222.902 534.13 229.275 533.898C235.701 528.307 242.175 522.771 248.696 517.292C251.611 514.832 257.274 510.31 259.679 507.764L259.393 507.579ZM300.059 566.084C288.227 566.04 274.572 565.767 262.848 566.24L262.922 576.027C275.245 576.006 287.776 575.874 300.082 576.015L300.059 566.084ZM288.715 696.017C289.28 682.386 288.835 666.151 288.782 652.297C288.7 630.978 288.855 609.17 288.475 587.87L275.417 587.926L275.047 658.364C275.012 669.689 274.543 685.055 275.203 696.044L288.715 696.017ZM334.772 484.59C321.883 497.016 310.009 512.372 297.156 525.058C294.409 527.769 291.574 531.037 289.127 534.027C298.255 533.856 307.385 533.814 316.514 533.901C320.305 533.887 325.178 534.005 328.879 533.742C334.557 526.34 340.714 516.783 346.095 508.965C351.048 501.769 358.342 492.091 362.662 484.742C353.371 484.352 344.067 484.301 334.772 484.59ZM735.542 587.982C735.643 623.621 735.003 660.563 735.61 696.05L749.064 696.033L749.025 588.035L735.542 587.982ZM651.887 484.701C641.556 484.615 631.224 484.593 620.893 484.637C628.858 501.102 637.938 517.557 646.242 533.976C655.248 533.97 674.393 534.439 682.644 533.685C682.591 532.033 655.477 490.828 651.887 484.701ZM694.967 534.018C706.294 533.995 721.255 534.401 732.294 533.833C719.383 518.921 702.492 500.279 690.803 484.822C681.317 484.675 671.83 484.636 662.343 484.707C672.862 501.354 684.059 517.611 694.967 534.018Z"/><path fill="#124B2F" d="M336.68 587.054C353.323 586.553 371.051 587.134 387.767 586.945C393.44 586.881 412.277 586.683 417.013 587.539C420.992 592.061 417.893 663.51 418.837 674.832C419.069 677.621 418.163 678.992 416.222 680.801C415.703 680.843 415.183 680.877 414.663 680.905C408.145 681.191 400.972 680.996 394.417 680.988C376.067 680.965 357.663 681.314 339.326 680.861C335.241 680.759 334.272 679.044 334.273 675.181C334.283 647.145 334.263 619.102 334.357 591.068C334.364 588.926 335.231 588.369 336.68 587.054ZM372.778 667.62C372.671 657.909 372.971 647.784 372.45 638.172C363.972 637.947 354.942 638.251 346.394 638.221C345.91 647.112 346.079 660.159 346.428 669.224C350.496 669.173 370.738 669.625 372.55 668.475L372.778 667.62ZM381.793 599.279L381.136 599.765C380.652 606.304 380.903 623.153 381.216 629.931C388.848 629.791 400.146 630.215 407.33 629.756C407.044 620.25 407.058 609.001 407.237 599.448C399.685 598.939 389.515 599.139 381.793 599.279ZM346.023 599.139C346.243 609.404 346.285 619.672 346.149 629.939C354.624 629.831 364.196 629.672 372.619 629.966C372.533 622.303 372.046 606.614 372.766 599.54C365.184 598.786 353.983 599.143 346.023 599.139ZM407.236 638.341C399.188 637.822 389.317 638.264 381.101 638.28C380.797 648.638 381.363 659.339 381.009 669.421C384.222 669.421 405.736 669.854 407.197 668.966C407.098 658.758 407.111 648.549 407.236 638.341Z"/><path fill="#124B2F" d="M606.69 588.049C612.894 587.894 619.217 587.953 625.43 587.943C643.675 587.914 661.938 587.885 680.18 588.004C690.4 588.071 688.584 592.219 688.555 600.593C688.467 625.772 688.603 650.917 688.41 676.088C688.39 678.679 687.645 679.339 685.842 680.879C685.678 680.888 685.514 680.897 685.35 680.906C659.757 680.901 634.104 681.35 608.526 680.795C605.004 680.719 604.062 678.75 604.026 675.446C603.854 659.621 603.965 643.785 603.942 627.956L603.913 604.031C603.912 600.009 603.818 595.816 604.06 591.813C604.175 589.909 605.286 589.182 606.69 588.049ZM676.931 669.695C676.955 659.619 677.243 648.21 676.858 638.239C669.373 637.85 657.717 637.934 650.114 638.232C650.038 648.699 650.031 659.167 650.093 669.634C658.855 669.663 668.221 669.868 676.931 669.695ZM615.666 630.313L641.643 630.195C642.566 628.931 642.145 603.343 642.135 599.786C635.094 599.749 622.179 600.121 615.623 599.605C615.565 609.841 615.579 620.077 615.666 630.313ZM650.309 599.645C650.259 609.547 649.989 620.465 650.429 630.282C659.21 630.179 667.992 630.157 676.774 630.216C677.508 625.505 677.044 605.653 676.998 599.714C668.289 599.727 658.973 599.865 650.309 599.645ZM615.645 638.283C615.213 648.202 615.493 659.707 615.49 669.761C619.982 669.778 639.174 670.044 642.27 669.335C642.189 659.007 642.187 648.679 642.262 638.351C634.252 637.847 623.833 638.215 615.645 638.283Z"/><path fill="#124B2F" d="M511.49 371.717C535.995 371.888 553.319 389.721 552.077 414.134C551.765 420.26 553.212 453.776 550.937 456.796C547.09 458.31 522.098 457.655 516.125 457.625C509.685 457.634 478.634 458.28 474.894 456.728C473.504 453.866 473.988 436.124 474.052 431.992C474.309 415.679 471.519 398.588 483.331 385.408C491.619 376.162 499.32 372.756 511.49 371.717ZM485.925 445.998L508.969 446.029L508.95 420.654C501.197 420.509 493.442 420.484 485.687 420.581C485.816 429.053 485.895 437.525 485.925 445.998ZM517.021 382.95L517.169 412.615L540.605 412.535C539.83 398.014 531.227 386.615 517.021 382.95ZM517.473 420.504L517.529 445.924C524.964 445.934 533.093 446.099 540.472 445.849L540.499 420.543C532.292 420.33 525.582 420.45 517.473 420.504ZM487.376 412.601C494.532 412.641 501.879 412.772 509.018 412.71C509.026 408.912 509.512 385.155 508.365 383.498L507.734 383.426C494.768 387.799 485.304 397.463 485.944 412.023C486.807 412.748 486.321 412.577 487.376 412.601Z"/><path fill="#124B2F" d="M269.665 325.404C271.457 325.486 272.385 325.34 273.861 326.344C275.176 329.333 274.526 347.575 274.475 352.08C277.601 348.738 285.937 338.003 290.709 340.116L290.979 341.222C289.651 345.409 278.473 356.696 274.594 361.503C274.186 366.332 274.206 368.394 274.462 373.312C279.306 369.387 287.148 359.109 291.306 358.266L291.921 358.755C292.602 362.469 287.677 375.601 286.194 379.973C289.744 377.552 293.03 375.617 296.623 373.021C298.778 366.279 300.348 351.157 304.675 348.15C306.539 348.089 305.7 347.839 307.246 349.034C308.243 351.808 305.449 364.592 304.47 367.799C308.265 365.129 320.321 355.632 324.414 357.004C325.4 358.558 325.095 357.71 325.163 359.702C323.445 362.496 310.266 371.163 306.405 374.148C306.934 374.219 307.462 374.304 307.987 374.402C312.476 375.202 323.757 376.96 326.2 380.456L326.021 381.334C321.851 384.531 304.583 380.454 299.556 378.494C296.669 380.363 293.3 383.126 290.522 385.294C296.435 386.659 313.944 389.116 316.545 393.038L316.352 393.977C313.553 396.701 303.9 396.864 299.804 397.819C296.637 398.557 294.353 399.167 291.178 400.163C294.424 402.447 297.964 405.126 301.523 406.775C309.389 405.81 316.51 403.346 324.254 402.371C326.03 402.148 326.618 402.473 327.781 403.477C328.473 407.494 323.79 408.327 320.67 409.079C316.831 410.003 312.941 410.839 309.088 411.715C314.538 415.446 325.902 420.03 328.836 425.208C328.94 426.907 329.186 426.194 328.188 427.454C324.135 428.751 311.874 420.383 306.919 417.877C308.116 421.973 312.129 433.601 311.408 437.33C310.045 438.547 310.804 438.215 309.116 438.501C304.759 436.548 300.366 417.821 297.899 411.733C294.303 409.921 290.719 407.361 287.044 405.345C287.788 409.405 295.551 427.163 293.747 428.791C289.533 428.67 278.269 416.348 274.568 412.742C274.6 415.874 274.382 423.163 275.249 426.002C276.971 431.645 292.614 441.569 292.335 447.301C288.584 451.014 278.444 439.66 274.991 436.915C274.967 442.011 276.315 455.299 272.766 458.303C270.907 458.586 271.803 458.688 270.003 457.847C268.074 455.449 268.936 438.837 268.977 434.856C268.037 435.725 267.065 436.735 266.15 437.645C262.937 441.264 257.93 448.248 252.797 447.548C251.366 446.631 251.867 447.253 251.333 445.548C251.717 442.406 265.788 429.315 269.011 426.014L268.999 412.847C264.61 416.065 253.847 428.975 249.351 428.145C248.351 426.664 248.669 427.485 248.593 425.523C249.762 423.152 250.092 422.99 252.078 421.128C252.946 417.231 255.301 409.059 256.694 405.435C253.04 407.42 249.231 409.804 245.643 411.956C244.739 417.163 240.366 433.914 237.774 438.059C236.5 438.991 236.543 438.884 234.946 439.052C230.773 436.574 237.096 420.602 238.697 416.568C234.034 419.913 217.363 432.314 212.392 430.799C211.176 429.323 211.514 430.14 211.301 428.275C213.322 423.658 229.202 415.287 234.451 411.693C228.841 410.423 217.571 410.107 213.887 406.662C213.311 404.879 213.309 405.764 214.036 403.919C214.429 403.626 214.823 403.334 215.217 403.042C222.603 402.73 234.227 406.005 241.45 406.719L242.147 406.784C245.91 404.466 249.032 402.428 252.641 399.88C247.707 399.279 230.094 396.779 228.299 392.102C228.552 390.139 228.165 390.989 229.596 389.507C230.466 389.083 230.725 388.97 231.634 389.25C235.852 390.553 247.939 387.396 252.267 385.984L253.034 385.729C249.292 383.283 246.854 381.748 242.893 379.738C237.893 380.533 218.013 384.964 214.681 382.861C213.748 381.222 213.905 382.064 214.088 380.27C216.72 376.541 229.732 376.412 235.231 375.315L235.923 375.174C231.38 371.778 211.881 361.491 211.291 356.938C213.725 352.968 219.334 356.765 222.397 358.626C227.787 361.902 233.03 365.373 238.452 368.623C237.278 364.82 228.942 347.824 235.683 347.058C240.842 350.067 242.363 366.438 246.046 371.702C249.284 376.33 250.932 376.728 255.795 379.367C254.043 369.485 251.566 367.968 249.318 359.882C249.718 358.009 249.221 358.626 250.497 357.714C255.619 357.528 263.003 368.845 268.001 373.429L268.466 373.85C268.284 369.295 268.299 364.532 268.246 359.959C262.868 353.561 255.484 348.039 251.074 342.149C250.777 340.403 251.575 338.024 253.177 338.463C258.242 339.852 264.742 348.347 268.412 351.988C268.501 344.22 267.827 335.353 268.387 327.538C268.439 326.812 269.205 325.943 269.665 325.404ZM277.406 392.456C279.679 393.882 282.274 395.593 284.566 396.917C287.364 396.005 289.742 395.225 292.607 394.528C296.08 393.921 298.013 393.454 301.398 392.457C297.744 391.484 287.088 388.758 283.296 388.929C281.353 390.139 279.39 391.315 277.406 392.456ZM261.147 401.843C260.607 405.439 259.025 411.6 258.735 414.105L258.965 414.254C262.635 411.063 264.654 409.214 269.005 406.973C269.012 405.119 269.227 399.011 268.645 397.69L268.396 397.463C265.663 398.977 263.743 400.101 261.147 401.843ZM285.95 416.652C284.199 411.743 283.113 407.069 281.519 402.296L274.486 397.672L274.607 406.796C280.471 410.195 283.15 415.012 285.95 416.652ZM258.127 371.84C259.21 375.598 260.311 379.35 261.431 383.097C263.989 384.523 266.364 385.843 268.992 387.144C268.831 384.357 268.708 381.635 268.379 378.86C262.801 376.712 261.819 374.029 258.127 371.84ZM258.665 396.677L265.164 392.559C262.749 391.205 259.813 388.985 257.258 389.641C252.839 390.493 249.19 391.582 244.892 392.604C247.667 393.807 252.18 394.726 255.259 395.449L258.665 396.677ZM274.012 379.062C274.011 381.286 273.903 385.412 274.105 387.468C276.083 386.261 278.164 384.936 280.169 383.802C280.974 381.303 284.146 372.449 283.765 370.426C280.787 373.453 277.615 376.768 274.012 379.062Z"/><path fill="#124B2F" d="M371.293 280.246C371.166 276.521 369.4 261.001 373.864 260.521C376.851 262.075 375.687 276.648 376.053 280.759C378.649 277.763 385.168 266.715 388.951 269.922C389.316 271.418 389.351 271.748 388.153 273.478C384.486 278.775 379.874 283.76 376.07 288.945C376.047 294.915 375.927 301.144 376.121 307.091L380.224 304.964C380.396 304.253 381.206 300.669 381.459 300.189C382.52 297.954 382.125 296.284 383.452 293.82L384.502 294.082L385.321 295.17C384.439 298.526 384.475 299.449 384.411 302.883C386.56 301.537 389.304 299.925 391.285 298.43C391.586 292.792 397.421 278.982 403.174 277.946L403.074 277.967L403.974 278.912C403.454 284.732 398.239 290.803 395.34 296.204L395.923 295.887C401.201 292.965 414.831 282.431 419.312 283.642C420.195 284.911 419.926 284.178 419.764 286.021C418.166 288.666 408.857 293.865 405.78 295.45C409.856 295.537 417.925 294.672 419.243 299.459C417.353 302.505 405.011 297.676 399.799 299.593L399.326 300.464C403.822 302.636 410.59 303.311 413.426 306.656L413.405 307.489C408.787 310.445 399.702 306.063 395.074 304.521C394.342 304.277 386.742 308.359 385.523 308.815L385.327 309.068C388.995 309.261 392.408 309.43 396.013 310.258C398.085 310.551 400.551 310.619 402.138 311.841L402.023 312.624C399.411 314.221 396.069 314.658 393.036 315.168L386.21 316.889C386.733 317.954 391.114 319.413 392.743 320.176C397.198 317.73 406.787 313.877 411.729 315.271C412.916 316.445 412.545 315.73 412.652 317.591C410.9 320.563 401.462 321.626 397.433 323.332C399.198 323.946 400.632 324.503 402.528 324.691C406.191 325.055 417.381 321.554 419.542 324.85C418.244 328.687 409.557 328.116 405.69 328.378C409.249 331.236 418.935 335.027 420.377 338.384C420.23 340.2 420.615 339.515 419.375 340.606C414.934 340.996 402.668 333.149 398.832 330.344C399.957 333.689 405.136 344.042 404.811 345.502C403.493 346.628 404.249 346.34 402.428 346.289C397.601 343.091 394.958 329.948 389.856 325.95C387.949 324.455 386.574 323.862 384.434 322.794C386.162 329.349 388.38 335.065 391.076 341.247C391.489 342.194 390.951 342.935 390.515 343.686C386.701 344.244 379.958 331.541 378.996 328.425L379.457 328.116L382.42 329.695L382.833 329.322L380.496 321.004C378.972 320.236 377.856 319.769 376.532 318.666L376.521 336.938L376.84 337.406C379.848 341.752 388.962 351.129 388.448 355.286C386.934 356.113 387.743 355.932 385.904 355.679C381.86 352.647 379.892 348.266 376.06 344.843C376.112 349.369 376.958 362.033 374.615 365.158C373.201 365.695 373.932 365.58 372.362 365.193C370.284 362.948 371.574 348.817 371.38 344.736C367.358 348.538 364.955 352.794 361.022 356.27C360.522 356.316 360.022 356.363 359.522 356.409C358.103 355.515 358.563 356.129 358.114 354.494C359.051 349.884 367.216 340.264 371.025 337.085C371.245 333.55 371.323 328.808 370.698 325.329C369.47 329.826 367.657 331.835 364.088 334.904C362.381 337.543 359.939 342.304 356.556 342.567C354.901 338.807 360.622 328.186 362.393 323.508C359.563 325.342 356.712 327.143 353.841 328.913C352.593 334.214 350.838 343.86 346.598 347.607C344.786 348.094 345.645 348.17 343.935 347.339C342.819 345.038 347.153 335.098 348.259 331.704C344.115 333.837 333.058 341.015 328.447 340.37C327.789 340.278 327.803 339.699 327.497 338.892C328.435 335.909 338.919 331.346 342.678 328.032C338.718 328.057 330.924 328.633 328.462 325.316C328.979 319.904 343.635 324.285 348.089 324.798C352.479 322.576 357.137 319.907 361.48 317.516C358.54 317.042 345.408 314.915 344.133 312.424C345.963 309.972 353.044 310.039 356.007 309.311C357.952 308.834 359.542 308.303 361.43 307.662C358.663 306.344 356.59 305.253 353.93 303.73C350.508 305.407 337.669 311.321 335.445 306.452C336.869 302.839 346.764 301.9 350.392 301.265L345.333 298.484C340.727 299.439 332.365 301.823 328.426 299.369L328.434 298.494C331.951 295.691 337.414 295.699 341.794 295.477C337.934 293.222 327.579 288.597 329.264 283.622L330.247 283.172C333.939 283.668 346.52 292.188 350.549 294.724C349.066 291.298 343.169 281.451 345.416 278.53C350.386 277.994 354.711 293.93 356.113 298.218C358.806 299.241 361.001 300.01 363.319 301.752L364.221 302.224C364.781 300.736 364.283 301.195 365.451 300.525L366.251 301.153L366.851 300.117C367.497 305.01 367.202 305.11 371.03 308.146C371.004 301.289 371.139 293.685 370.897 286.891C368.136 283.393 359.297 273.433 359.468 269.642L360.527 268.369C364.272 268.167 369.223 277.149 371.293 280.246ZM370.304 324.814C371.05 323.079 371.584 321.595 370.874 319.809C369.337 319.041 370.15 319.14 368.331 319.747C364.646 323.288 364.32 328.238 363.367 333.222C365.961 330.571 366.512 327.532 370.304 324.814Z"/><path fill="#2F713C" d="M361.43 307.662C363.087 308.607 363.099 308.245 363.729 309.672C362.483 311.363 359.121 312.327 357.048 313.068L357.277 313.624L357.924 313.725C359.902 314.05 363.087 314.501 364.459 315.955C363.143 316.373 363.582 316.363 362.265 316.331L361.96 317.505L361.48 317.516C358.54 317.042 345.408 314.915 344.133 312.424C345.963 309.972 353.044 310.039 356.007 309.311C357.952 308.834 359.542 308.303 361.43 307.662Z"/><path fill="#2F713C" d="M396.013 310.258C398.085 310.551 400.551 310.619 402.138 311.841L402.023 312.624C399.411 314.221 396.069 314.658 393.036 315.168C390.922 313.515 391.503 313.464 389.227 313.204L391.241 312.667L391.614 313.022C393.71 312.393 394.274 311.697 396.013 310.258Z"/><path fill="#378043" d="M385.327 309.068C388.995 309.261 392.408 309.43 396.013 310.258C394.274 311.697 393.71 312.393 391.614 313.022L391.241 312.667C388.734 312.139 383.846 312.014 382.51 310.903C383.34 309.47 383.354 309.853 385.327 309.068Z"/><path fill="#378043" d="M370.304 324.814L370.698 325.329C369.47 329.826 367.657 331.835 364.088 334.904L363.13 334.306L363.367 333.222C365.961 330.571 366.512 327.532 370.304 324.814Z"/><path fill="#378043" d="M389.227 313.204C391.503 313.464 390.922 313.515 393.036 315.168L386.21 316.889C385.791 316.608 384.928 315.887 384.506 315.551L384.663 314.851C386.182 314.294 387.703 313.745 389.227 313.204Z"/><path fill="#2F713C" d="M361.279 295.072C358.755 291.653 354.115 284.39 358.47 280.808L359.707 280.941C363.238 283.439 365.153 289.881 366.154 294L366.008 297.313L366.851 300.117L366.251 301.153L365.451 300.525C364.283 301.195 364.781 300.736 364.221 302.224L363.319 301.752C363.162 299.622 362.121 297.004 361.279 295.072Z"/><path fill="#84A788" d="M360.16 283.624C362.128 286.472 365.096 292.707 366.154 294L366.008 297.313C364.771 295.793 364.026 293.862 363.2 292.064C362.057 289.143 361.064 286.634 360.16 283.624Z"/><path fill="#2F713C" d="M381.459 300.189C381.242 294.654 383.645 281.058 390.456 280.758L391.097 281.539C391.518 285.04 389.563 287.54 387.792 290.611C387.013 292.081 386.177 293.764 385.321 295.17L384.502 294.082L383.452 293.82C382.125 296.284 382.52 297.954 381.459 300.189Z"/><path fill="#DCD4DA" d="M384.502 294.082C385.218 291.82 386.846 285.981 388.625 284.628C388.882 286.828 388.308 288.442 387.792 290.611C387.013 292.081 386.177 293.764 385.321 295.17L384.502 294.082Z"/><path fill="#124B2F" d="M335.463 315.349C338.294 315.586 346.707 316.48 348.464 318.835C348.977 319.521 348.681 319.979 348.565 321.07C344.812 321.101 338.57 320.536 335.44 318.364C334.639 316.673 334.829 317.614 335.463 315.349Z"/></svg>